{"title":"Flipping.Ships.S01E04.Rat.Rod.and.Reel.HDTV.XviD-AFG","uid":11931922,"size":346628356,"categoryP":"video","categoryS":"tv_shows","magnet":"?xt=urn:btih:74f1ef2a59878494cf9789b1a82383c41dfd645f&amp;dn=Flipping.Ships.S01E04.Rat.Rod.and.Reel.HDTV.XviD-AFG&amp;tr=udp%3A%2F%2Ftracker.openbittorrent.com%3A80&amp;tr=udp%3A%2F%2Fopen.demonii.com%3A1337&amp;tr=udp%3A%2F%2Ftracker.coppersurfer.tk%3A6969&amp;tr=udp%3A%2F%2Fexodus.desync.com%3A6969","seeders":0,"leechers":2,"uploader":"toots2boots","files":2,"time":1431824664,"description":"4 :01x04 - Rat Rod &amp; Reel\nMay/15/2015\nMade to look vintage rat rods are the hottest trend in classic automobile and motorcycle restoration. While there are plenty of these custom cruisers on two and four wheels, rat rod boats are virtually nonexistent until now\n\nGeneral\nComplete name                            : G:Torrent uploadFlipping ShipsFlipping.Ships.S01E04.Rat.Rod.and.Reel.HDTV.XviD-AFGFlipping.Ships.S01E04.Rat.Rod.and.Reel.HDTV.XviD-AFG.avi\nFormat                                   : AVI\nFormat/Info                              : Audio Video Interleave\nFile size                                : 331 MiB\nDuration                                 : 40mn 45s\nOverall bit rate mode                    : Variable\nOverall bit rate                         : 1 134 Kbps\n\nVideo\nID                                       : 0\nFormat                                   : MPEG-4 Visual\nFormat profile                           : Advanced Simple@L5\nFormat settings, BVOP                    : 2\nFormat settings, QPel                    : No\nFormat settings, GMC                     : No warppoints\nFormat settings, Matrix                  : Default (H.263)\nCodec ID                                 : XVID\nCodec ID/Hint                            : XviD\nDuration                                 : 40mn 45s\nBit rate                                 : 993 Kbps\nWidth                                    : 640 pixels\nHeight                                   : 360 pixels\nDisplay aspect ratio                     : 16:9\nFrame rate                               : 23.976 fps\nColor space                              : YUV\nChroma subsampling                       : 4:2:0\nBit depth                                : 8 bits\nScan type                                : Progressive\nCompression mode                         : Lossy\nBits/(Pixel*Frame)                       : 0.180\nStream size                              : 290 MiB (88%)\nWriting library                          : XviD 64\n\nAudio\nID                                       : 1\nFormat                                   : MPEG Audio\nFormat version                           : Version 1\nFormat profile                           : Layer 3\nMode                                     : Joint stereo\nMode extension                           : MS Stereo\nCodec ID                                 : 55\nCodec ID/Hint                            : MP3\nDuration                                 : 40mn 45s\nBit rate mode                            : Variable\nBit rate                                 : 128 Kbps\nChannel(s)                               : 2 channels\nSampling rate                            : 48.0 KHz\nCompression mode                         : Lossy\nStream size                              : 37.3 MiB (11%)\nAlignment                                : Aligned on interleaves\nInterleave, duration                     : 24 ms (0.58 video frame)\nInterleave, preload duration             : 178 ms\nTitle                                    : Flipping.Ships.S01E04.Rat.Rod.and.Reel.HDTV.XviD-AFG_360p.audio","torrent":{"xt":"urn:btih:74f1ef2a59878494cf9789b1a82383c41dfd645f","amp;dn":"Flipping.Ships.S01E04.Rat.Rod.and.Reel.HDTV.XviD-AFG","amp;tr":["udp%3A%2F%2Ftracker.openbittorrent.com%3A80","udp%3A%2F%2Fopen.demonii.com%3A1337","udp%3A%2F%2Ftracker.coppersurfer.tk%3A6969","udp%3A%2F%2Fexodus.desync.com%3A6969"],"infoHash":"74f1ef2a59878494cf9789b1a82383c41dfd645f","infoHashBuffer":{"type":"Buffer","data":[116,241,239,42,89,135,132,148,207,151,137,177,168,35,131,196,29,253,100,95]},"announce":[],"urlList":[]}}